<svg width="76" height="76" viewBox="0 0 76 76" fill="none" xmlns="http://www.w3.org/2000/svg">
<rect x="0.272206" y="0.272206" width="75.4556" height="75.4556" rx="37.7278" stroke="#E2E6E7" stroke-width="0.544413"/>
<path d="M46.8218 32.0708H47.5889C47.9213 32.0708 48.1965 31.9618 48.4143 31.744C48.6322 31.5261 48.7406 31.2515 48.7396 30.9201V30.1529C48.7396 29.8205 48.6307 29.5459 48.4128 29.329C48.1949 29.1122 47.9203 29.0033 47.5889 29.0022H46.8218C46.4894 29.0022 46.2147 29.1112 45.9979 29.329C45.7811 29.5469 45.6721 29.8215 45.6711 30.1529V30.9201C45.6711 31.2525 45.78 31.5276 45.9979 31.7455C46.2158 31.9634 46.4904 32.0718 46.8218 32.0708ZM47.2054 53.5503C45.083 53.5503 43.2741 52.8021 41.7787 51.3057C40.2833 49.8093 39.5351 48.0004 39.5341 45.879C39.5331 43.7577 40.2813 41.9488 41.7787 40.4524C43.2761 38.956 45.085 38.2078 47.2054 38.2078C49.3257 38.2078 51.1351 38.956 52.6335 40.4524C54.132 41.9488 54.8797 43.7577 54.8766 45.879C54.8736 48.0004 54.1254 49.8098 52.632 51.3072C51.1387 52.8047 49.3298 53.5523 47.2054 53.5503ZM46.4382 46.6462V49.7147C46.4382 49.9192 46.5149 50.0982 46.6684 50.2517C46.8218 50.4051 47.0008 50.4818 47.2054 50.4818C47.4099 50.4818 47.5889 50.4051 47.7423 50.2517C47.8958 50.0982 47.9725 49.9192 47.9725 49.7147V46.6462H51.041C51.2456 46.6462 51.4246 46.5694 51.578 46.416C51.7314 46.2626 51.8081 46.0836 51.8081 45.879C51.8081 45.6745 51.7314 45.4955 51.578 45.342C51.4246 45.1886 51.2456 45.1119 51.041 45.1119H47.9725V42.0434C47.9725 41.8388 47.8958 41.6598 47.7423 41.5064C47.5889 41.353 47.4099 41.2763 47.2054 41.2763C47.0008 41.2763 46.8218 41.353 46.6684 41.5064C46.5149 41.6598 46.4382 41.8388 46.4382 42.0434V45.1119H43.3697C43.1652 45.1119 42.9862 45.1886 42.8327 45.342C42.6793 45.4955 42.6026 45.6745 42.6026 45.879C42.6026 46.0836 42.6793 46.2626 42.8327 46.416C42.9862 46.5694 43.1652 46.6462 43.3697 46.6462H46.4382ZM31.8628 28.3502C32.1697 28.3502 32.4704 28.3947 32.765 28.4837C33.0595 28.5727 33.347 28.7199 33.6272 28.9255L41.7588 34.7173C41.9633 34.8452 42.1106 35.0114 42.2006 35.216C42.2906 35.4205 42.3351 35.6251 42.3341 35.8297C42.3331 36.0342 42.2819 36.2199 42.1807 36.3866C42.0794 36.5533 41.926 36.7001 41.7204 36.8269C40.1094 37.7731 38.8309 39.0838 37.8848 40.7592C36.9386 42.4346 36.4656 44.2052 36.4656 46.0708C36.4656 46.9658 36.5551 47.6562 36.7341 48.1421C36.9131 48.6279 37.0026 49.1649 37.0026 49.753C37.0026 50.0343 36.9069 50.2583 36.7157 50.425C36.5244 50.5917 36.2876 50.6746 36.0053 50.6736C35.6729 50.6736 35.411 50.5457 35.2198 50.29C35.0285 50.0343 34.9324 49.7275 34.9313 49.3695V43.7694C34.9313 43.1302 34.7078 42.587 34.2609 42.1401C33.8139 41.6931 33.2702 41.4691 32.6299 41.4681H31.0957C30.4564 41.4681 29.9133 41.6921 29.4663 42.1401C29.0193 42.5881 28.7953 43.1312 28.7943 43.7694V47.6051C28.7943 48.4489 28.4941 49.1715 27.8937 49.773C27.2933 50.3744 26.5707 50.6746 25.7258 50.6736H24.1916C23.3477 50.6736 22.6256 50.3734 22.0252 49.773C21.4248 49.1726 21.1241 48.4499 21.123 47.6051V36.9037C21.123 36.3922 21.2381 35.9192 21.4683 35.4845C21.6984 35.0498 22.018 34.6918 22.4272 34.4105L30.0984 28.9255C30.3797 28.721 30.6676 28.5737 30.9622 28.4837C31.2568 28.3937 31.557 28.3497 31.8628 28.3517M51.8081 22.8652C52.652 22.8652 53.3746 23.1659 53.976 23.7674C54.5774 24.3688 54.8776 25.0909 54.8766 25.9337V36.0982C54.8766 36.5329 54.6721 36.8464 54.2629 37.0387C53.8538 37.231 53.4574 37.186 53.0739 36.9037C52.4602 36.4689 51.7953 36.1176 51.0793 35.8496C50.3634 35.5816 49.6346 35.3832 48.893 35.2543C48.4583 35.2032 48.0431 35.1648 47.6472 35.1393C47.2514 35.1137 46.8356 35.1265 46.3999 35.1776C46.1953 35.2032 46.023 35.1265 45.8828 34.9475C45.7427 34.7685 45.6721 34.5767 45.6711 34.3721C45.6711 34.1164 45.6138 33.8863 45.4993 33.6817C45.3847 33.4772 45.2246 33.2982 45.019 33.1447L36.3889 26.931C36.0564 26.6753 35.788 26.3684 35.5834 26.0105C35.3788 25.6525 35.2765 25.2945 35.2765 24.9365C35.2765 24.2972 35.4811 23.7924 35.8902 23.4222C36.2994 23.0519 36.8491 22.8663 37.5396 22.8652H51.8081Z" fill="#FD9A00"/>
</svg>
