<svg width="76" height="76" viewBox="0 0 76 76" fill="none" xmlns="http://www.w3.org/2000/svg">
<rect x="0.272206" y="0.272206" width="75.4556" height="75.4556" rx="37.7278" stroke="#E2E6E7" stroke-width="0.544413"/>
<path d="M29.8118 23.9551V29.09L32.4917 32.4121V42.8536L32.9838 43.2474L35.9526 33.5492L39.3949 43.9778L42.8666 39.6642L44.4765 44.2161V32.412L47.1562 29.0899V23.9551H44.1792V26.3772H42.367V23.9551H39.3576V26.3772H37.5778V23.9551H34.5684V26.3772H32.7887V23.9551H29.8118ZM35.9833 37.2642L33.5596 45.1812L29.0288 41.5566L30.8927 46.9994L25.4785 47.2454L27.9534 49.7202L25.5086 52.6298H31.0659L32.1749 51.5839L31.1397 48.7078L34.5849 49.9615L36.33 44.8526L38.322 50.5217L41.7979 47.9014L41.9229 51.891L45.8156 51.457L44.9811 52.6298H50.5215L46.5847 49.6037L49.3673 45.6931L44.2772 47.0025L42.4906 41.9516L38.9735 46.3221L35.9833 37.2642Z" fill="#FD9A00"/>
</svg>
