<svg width="22" height="21" viewBox="0 0 22 21" fill="none" xmlns="http://www.w3.org/2000/svg">
<path d="M6.87143 1.66992H14.2714C17.0905 1.66992 19.3809 3.83959 19.3809 6.50995V13.5196C19.3809 14.8033 18.8426 16.0344 17.8844 16.9421C16.9262 17.8497 15.6266 18.3597 14.2714 18.3597H6.87143C4.05238 18.3597 1.7619 16.19 1.7619 13.5196V6.50995C1.7619 5.22629 2.30023 3.99521 3.25845 3.08753C4.21667 2.17985 5.5163 1.66992 6.87143 1.66992ZM6.69523 3.3389C5.85412 3.3389 5.04745 3.65541 4.4527 4.21879C3.85794 4.78218 3.52381 5.5463 3.52381 6.34305V13.6865C3.52381 15.3472 4.94214 16.6907 6.69523 16.6907H14.4476C15.2887 16.6907 16.0954 16.3742 16.6902 15.8108C17.2849 15.2474 17.619 14.4833 17.619 13.6865V6.34305C17.619 4.68242 16.2007 3.3389 14.4476 3.3389H6.69523ZM15.1964 4.59063C15.4885 4.59063 15.7686 4.70053 15.9751 4.89615C16.1816 5.09177 16.2976 5.35709 16.2976 5.63374C16.2976 5.91039 16.1816 6.17571 15.9751 6.37133C15.7686 6.56695 15.4885 6.67685 15.1964 6.67685C14.9044 6.67685 14.6243 6.56695 14.4178 6.37133C14.2113 6.17571 14.0952 5.91039 14.0952 5.63374C14.0952 5.35709 14.2113 5.09177 14.4178 4.89615C14.6243 4.70053 14.9044 4.59063 15.1964 4.59063ZM10.5714 5.84236C11.7396 5.84236 12.86 6.28195 13.6861 7.06444C14.5121 7.84692 14.9762 8.9082 14.9762 10.0148C14.9762 11.1214 14.5121 12.1827 13.6861 12.9652C12.86 13.7476 11.7396 14.1872 10.5714 14.1872C9.40321 14.1872 8.28284 13.7476 7.45679 12.9652C6.63074 12.1827 6.16666 11.1214 6.16666 10.0148C6.16666 8.9082 6.63074 7.84692 7.45679 7.06444C8.28284 6.28195 9.40321 5.84236 10.5714 5.84236ZM10.5714 7.51134C9.8705 7.51134 9.19827 7.77509 8.70264 8.24458C8.20701 8.71407 7.92857 9.35084 7.92857 10.0148C7.92857 10.6788 8.20701 11.3155 8.70264 11.785C9.19827 12.2545 9.8705 12.5183 10.5714 12.5183C11.2724 12.5183 11.9446 12.2545 12.4402 11.785C12.9358 11.3155 13.2143 10.6788 13.2143 10.0148C13.2143 9.35084 12.9358 8.71407 12.4402 8.24458C11.9446 7.77509 11.2724 7.51134 10.5714 7.51134Z" fill="#FFB717"/>
</svg>
