<svg width="22" height="21" viewBox="0 0 22 21" fill="none" xmlns="http://www.w3.org/2000/svg">
<path d="M19.7862 5.00687C19.1079 5.29894 18.3767 5.49087 17.6191 5.58266C18.3943 5.14038 18.9934 4.43941 19.2753 3.59658C18.5441 4.01383 17.7336 4.3059 16.8791 4.47279C16.1831 3.75513 15.2053 3.33789 14.0953 3.33789C12.025 3.33789 10.3336 4.94011 10.3336 6.91784C10.3336 7.20157 10.3688 7.47695 10.4305 7.73564C7.29431 7.58543 4.50169 6.15846 2.64288 3.99714C2.31693 4.52286 2.13193 5.14038 2.13193 5.79128C2.13193 7.03467 2.79264 8.13619 3.81455 8.76206C3.18907 8.76206 2.60764 8.59516 2.09669 8.34482V8.36985C2.09669 10.1056 3.4005 11.5576 5.12717 11.883C4.57281 12.0267 3.99082 12.0467 3.42693 11.9415C3.6662 12.6528 4.1348 13.2753 4.76687 13.7214C5.39894 14.1674 6.16268 14.4146 6.95074 14.4282C5.61489 15.43 3.95902 15.9715 2.25526 15.9637C1.95574 15.9637 1.65621 15.947 1.35669 15.9136C3.0305 16.9317 5.02145 17.5242 7.15336 17.5242C14.0953 17.5242 17.9098 12.0666 17.9098 7.33509C17.9098 7.17653 17.9098 7.02633 17.901 6.86777C18.641 6.36708 19.2753 5.73287 19.7862 5.00687Z" fill="#FFB717"/>
</svg>
