<svg width="37" height="42" viewBox="0 0 37 42" fill="none" xmlns="http://www.w3.org/2000/svg">
<path d="M6.25427 8.77938e-05V7.41132L10.1222 12.2062V27.2767L10.8325 27.8451L15.1174 13.8474L20.0858 28.8992L25.0966 22.6733L27.4202 29.2432V12.206L31.2879 7.41124V0H26.9911V3.49594H24.3756V8.77938e-05H20.0319V3.49594H17.4632V8.77938e-05H13.1197V3.49594H10.5509V8.77938e-05H6.25427ZM15.1618 19.2094L11.6637 30.6362L5.12427 25.4046L7.81443 33.2604L0 33.6154L3.5721 37.1874L0.0434817 41.3869H8.06434L9.66509 39.8773L8.1709 35.7262L13.1435 37.5357L15.6622 30.1619L18.5372 38.3442L23.5541 34.5623L23.7346 40.3205L29.353 39.6942L28.1485 41.3869H36.1451L30.463 37.0192L34.4792 31.3749L27.1325 33.2648L24.554 25.9748L19.4776 32.2828L15.1618 19.2094Z" fill="#FD9A00"/>
</svg>
