<svg width="49" height="45" viewBox="0 0 49 45" fill="none" xmlns="http://www.w3.org/2000/svg">
<path d="M37.0916 13.2865H38.1988C38.6786 13.2865 39.0757 13.1293 39.3901 12.8149C39.7046 12.5004 39.8611 12.104 39.8596 11.6257V10.5185C39.8596 10.0387 39.7024 9.64233 39.3879 9.32936C39.0735 9.01639 38.6771 8.85916 38.1988 8.85769H37.0916C36.6118 8.85769 36.2154 9.01491 35.9024 9.32936C35.5895 9.64381 35.4322 10.0402 35.4308 10.5185V11.6257C35.4308 12.1055 35.588 12.5026 35.9024 12.8171C36.2169 13.1315 36.6133 13.288 37.0916 13.2865ZM37.6452 44.2884C34.5819 44.2884 31.9711 43.2085 29.8128 41.0487C27.6544 38.8889 26.5745 36.2781 26.5731 33.2163C26.5716 30.1545 27.6515 27.5437 29.8128 25.3839C31.974 23.2241 34.5848 22.1442 37.6452 22.1442C40.7055 22.1442 43.317 23.2241 45.4798 25.3839C47.6426 27.5437 48.7217 30.1545 48.7173 33.2163C48.7129 36.2781 47.633 38.8897 45.4776 41.0509C43.3222 43.2122 40.7114 44.2914 37.6452 44.2884ZM36.538 34.3235V38.7524C36.538 39.0476 36.6487 39.306 36.8701 39.5274C37.0916 39.7489 37.3499 39.8596 37.6452 39.8596C37.9404 39.8596 38.1988 39.7489 38.4202 39.5274C38.6417 39.306 38.7524 39.0476 38.7524 38.7524V34.3235H43.1812C43.4765 34.3235 43.7348 34.2128 43.9563 33.9914C44.1777 33.7699 44.2884 33.5116 44.2884 33.2163C44.2884 32.9211 44.1777 32.6627 43.9563 32.4413C43.7348 32.2198 43.4765 32.1091 43.1812 32.1091H38.7524V27.6803C38.7524 27.385 38.6417 27.1267 38.4202 26.9052C38.1988 26.6838 37.9404 26.5731 37.6452 26.5731C37.3499 26.5731 37.0916 26.6838 36.8701 26.9052C36.6487 27.1267 36.538 27.385 36.538 27.6803V32.1091H32.1091C31.8139 32.1091 31.5555 32.2198 31.3341 32.4413C31.1126 32.6627 31.0019 32.9211 31.0019 33.2163C31.0019 33.5116 31.1126 33.7699 31.3341 33.9914C31.5555 34.2128 31.8139 34.3235 32.1091 34.3235H36.538ZM15.501 7.91656C15.9438 7.91656 16.3779 7.98078 16.803 8.10921C17.2282 8.23765 17.643 8.45023 18.0475 8.74697L29.784 17.1064C30.0792 17.2909 30.2918 17.5308 30.4217 17.8261C30.5516 18.1214 30.6159 18.4166 30.6144 18.7119C30.6129 19.0071 30.5391 19.2751 30.3929 19.5157C30.2468 19.7563 30.0253 19.9682 29.7286 20.1512C27.4035 21.5168 25.5581 23.4087 24.1926 25.8268C22.827 28.2449 22.1442 30.8004 22.1442 33.4931C22.1442 34.7849 22.2734 35.7814 22.5317 36.4826C22.7901 37.1838 22.9193 37.9589 22.9193 38.8077C22.9193 39.2137 22.7812 39.537 22.5052 39.7777C22.2291 40.0183 21.8873 40.1379 21.4799 40.1364C21.0001 40.1364 20.6222 39.9519 20.3461 39.5828C20.07 39.2137 19.9313 38.7708 19.9298 38.2541V30.1715C19.9298 29.2488 19.6072 28.4649 18.9621 27.8198C18.317 27.1746 17.5323 26.8513 16.6082 26.8499H14.3937C13.4711 26.8499 12.6872 27.1732 12.042 27.8198C11.3969 28.4664 11.0736 29.2503 11.0721 30.1715V35.7076C11.0721 36.9255 10.6388 37.9685 9.77224 38.8365C8.90567 39.7046 7.86267 40.1379 6.64327 40.1364H4.42884C3.21091 40.1364 2.16866 39.7031 1.30208 38.8365C0.435503 37.97 0.00147628 36.927 0 35.7076V20.262C0 19.5238 0.166082 18.841 0.498245 18.2136C0.830408 17.5862 1.29175 17.0695 1.88226 16.6635L12.9544 8.74697C13.3603 8.45171 13.7759 8.23913 14.2011 8.10921C14.6263 7.9793 15.0595 7.91582 15.501 7.91877M44.2884 0C45.5064 0 46.5494 0.434027 47.4174 1.30208C48.2855 2.17013 48.7188 3.21239 48.7173 4.42884V19.0994C48.7173 19.7268 48.422 20.1793 47.8315 20.4568C47.241 20.7344 46.6689 20.6694 46.1153 20.262C45.2296 19.6345 44.27 19.1274 43.2366 18.7407C42.2032 18.3539 41.1513 18.0675 40.081 17.8815C39.4536 17.8076 38.8542 17.7523 38.2829 17.7154C37.7116 17.6785 37.1115 17.6969 36.4826 17.7707C36.1873 17.8076 35.9386 17.6969 35.7363 17.4386C35.5341 17.1802 35.4322 16.9034 35.4308 16.6082C35.4308 16.2391 35.3481 15.9069 35.1827 15.6117C35.0174 15.3164 34.7864 15.0581 34.4896 14.8366L22.0335 5.86822C21.5537 5.49915 21.1662 5.05626 20.8709 4.53957C20.5757 4.02287 20.428 3.50617 20.428 2.98947C20.428 2.06679 20.7233 1.33825 21.3138 0.803835C21.9043 0.269421 22.6978 0.00147628 23.6943 0H44.2884Z" fill="#FD9A00"/>
</svg>
