<svg width="22" height="21" viewBox="0 0 22 21" fill="none" xmlns="http://www.w3.org/2000/svg">
<path d="M8.80958 12.5168L13.3817 10.0133L8.80958 7.50983V12.5168ZM18.9934 5.98271C19.1079 6.37492 19.1872 6.90065 19.2401 7.56824C19.3017 8.23583 19.3282 8.81163 19.3282 9.31232L19.381 10.0133C19.381 11.8408 19.2401 13.1843 18.9934 14.0439C18.7732 14.7949 18.2622 15.2789 17.4693 15.4875C17.0553 15.596 16.2977 15.6711 15.1348 15.7212C13.9896 15.7796 12.9412 15.8046 11.9722 15.8046L10.5715 15.8547C6.8803 15.8547 4.58101 15.7212 3.67363 15.4875C2.88077 15.2789 2.36982 14.7949 2.14958 14.0439C2.03506 13.6517 1.95577 13.1259 1.90292 12.4583C1.84125 11.7907 1.81482 11.215 1.81482 10.7143L1.76196 10.0133C1.76196 8.18576 1.90292 6.84224 2.14958 5.98271C2.36982 5.23167 2.88077 4.74767 3.67363 4.53905C4.08768 4.43057 4.8453 4.35546 6.00815 4.30539C7.15339 4.24698 8.20172 4.22194 9.17077 4.22194L10.5715 4.17188C14.2627 4.17188 16.562 4.30539 17.4693 4.53905C18.2622 4.74767 18.7732 5.23167 18.9934 5.98271Z" fill="#FFB717"/>
</svg>
