<svg width="95" height="104" viewBox="0 0 95 104" fill="none" xmlns="http://www.w3.org/2000/svg">
<path d="M31.1211 39.668L39.8086 39.6689C43.7885 47.4137 47.8353 55.1238 51.9488 62.7985C51.654 63.4988 51.1916 64.3713 50.8497 65.0629L48.9312 68.9421C48.4908 69.9176 47.9016 71.0245 47.4285 72.0113L35.2893 47.9198C33.9458 45.2495 32.388 42.3325 31.1211 39.668Z" fill="white"/>
<path d="M49.2549 0C49.7098 0.728113 50.7325 2.91122 51.1585 3.76897L55.0657 11.6598L62.803 27.233C63.8199 29.2937 64.9346 31.4203 65.9047 33.4899L62.1542 33.489L57.7304 33.4913C53.7762 25.2432 49.3344 17.0141 45.3838 8.75529C46.6346 6.01803 47.9342 2.62961 49.2549 0Z" fill="white"/>
<path d="M38.1722 24.9609C38.1717 24.9606 40.2064 28.0014 40.4578 28.3608C42.0632 30.6561 43.5424 31.8682 45.775 33.4902L39.088 33.4911L31.3862 33.4894C34.1848 31.1533 36.3671 28.1053 38.1722 24.9609Z" fill="white"/>
<path d="M50.3008 39.6506C51.6562 39.5707 53.7481 39.6375 55.1687 39.6375L64.6679 39.6385C62.7848 40.9994 61.6087 42.0488 60.156 43.84C58.8944 45.3552 58.0513 46.7297 57.181 48.4745C56.2352 44.1998 54.0723 41.7157 50.3008 39.6506Z" fill="white"/>
<path d="M41.413 87.0676C41.4908 87.0629 41.5688 87.0605 41.6468 87.0605C43.778 87.0645 45.8205 87.9141 47.3254 89.4235C49.0412 91.1385 49.6929 93.1248 49.6907 95.5018L41.6639 95.4979L41.661 94.6717C43.3744 94.6647 45.4607 95.0727 46.6672 93.636C47.1655 93.0505 47.4073 92.2884 47.3384 91.5231C47.2587 90.6711 46.8099 90.009 46.1616 89.4783C44.6813 88.2878 42.7896 87.732 40.9006 87.9329C38.8249 88.1502 37.217 89.1609 35.926 90.7618C35.0514 91.9226 34.5505 93.3218 34.4899 94.7741C34.4049 96.6853 35.0934 98.5504 36.4 99.948C37.8579 101.515 39.5721 102.174 41.671 102.26L41.6662 103.091C39.6005 102.985 38.0545 102.518 36.4371 101.14C34.8497 99.7807 33.8632 97.85 33.6924 95.7668C33.3262 91.0283 36.7455 87.3959 41.413 87.0676Z" fill="white"/>
<path d="M4.98762 87.1367C5.33242 87.7206 6.07243 90.5409 6.34038 91.407L9.97813 103.084L9.12713 103.093C8.0814 99.4856 6.82205 95.8469 5.69902 92.2606C5.62163 92.0136 5.23338 91.8924 5.02084 91.8244C4.10628 91.9933 4.07025 92.7585 3.82488 93.5433C2.83059 96.7216 1.88571 99.9257 0.857027 103.092L0 103.089C1.24325 98.9501 2.60969 94.8354 3.86295 90.6988C4.22174 89.5138 4.59295 88.3077 4.98762 87.1367Z" fill="white"/>
<path d="M90.006 87.1445C90.2045 87.4181 91.2543 91.0146 91.4263 91.5672L95.0001 103.086L94.1731 103.092C93.8323 102.153 93.5048 100.99 93.2007 100.019C92.6942 98.3795 92.1767 96.7435 91.6475 95.1113C91.3622 94.2015 91.1215 93.2431 90.7814 92.3544C90.6525 92.0159 90.4258 91.9542 90.0998 91.8314C89.6824 91.8948 89.3705 92.005 89.2173 92.4474C88.8327 93.5636 88.4982 94.7041 88.148 95.8328L85.903 103.095L85.0439 103.088C85.4496 101.491 86.2383 99.2237 86.7425 97.6049L90.006 87.1445Z" fill="white"/>
<path d="M57.001 87.0637H57.8628C58.3571 88.9225 59.1271 91.1174 59.6956 92.9974C60.0139 94.0761 60.3413 95.1524 60.6777 96.2264C60.8395 96.7455 60.99 97.2801 61.1949 97.7835C61.4678 98.4542 62.4609 98.473 62.7165 97.7577C63.1261 96.611 63.4716 95.4377 63.8343 94.2746L66.0753 87.0605L66.925 87.0676L65.8291 90.5976C64.5636 94.7006 63.2887 98.9944 61.9583 103.06C60.673 99.2851 59.634 95.3463 58.3794 91.552C57.9059 90.12 57.3721 88.5137 57.001 87.0637Z" fill="white"/>
<path d="M22.5686 87.0586L31.361 87.0602L31.3605 87.884C30.1742 87.884 29.1999 87.9106 28.2989 88.8221C27.8849 89.2457 27.599 89.778 27.474 90.3573C27.315 91.0647 27.3729 92.8117 27.3732 93.6215L27.3759 99.162L27.3793 103.09L26.5443 103.091L26.5402 94.4884C26.5405 94.0405 26.5592 93.566 26.5444 93.1267C26.4918 91.5618 26.8677 90.0282 25.6082 88.8197C24.6602 87.9098 23.7862 87.8817 22.563 87.888L22.5686 87.0586Z" fill="white"/>
<path d="M73.9357 87.0605L82.7382 87.0645L82.7413 87.8876C81.5571 87.8829 80.5807 87.9094 79.6803 88.8193C79.255 89.2555 78.9642 89.8042 78.8431 90.4006C78.6922 91.1104 78.7501 92.7894 78.7501 93.5961L78.7532 99.1632L78.7516 103.096L77.916 103.088L77.9231 94.8429C77.9246 91.2941 78.6883 87.8665 73.9326 87.8868L73.9357 87.0605Z" fill="white"/>
<path d="M12.257 87.0586L13.094 87.0695L13.0895 95.2998C13.0893 96.0736 13.0978 96.8881 13.0894 97.6534C13.0734 99.1003 13.0673 100.125 14.1502 101.207C15.2726 102.329 16.4308 102.271 17.8999 102.268L20.2613 102.257L20.2525 103.092L12.2559 103.094L12.257 87.0586Z" fill="white"/>
<path d="M70.1367 87.0605L70.959 87.0652C70.8957 92.3619 70.9551 97.7828 70.9528 103.09L70.1328 103.09L70.1367 87.0605Z" fill="white"/>
</svg>
